<svg xmlns="http://www.w3.org/2000/svg" height="1200" width="1600" version="1.1" xmlns:xlink="http://www.w3.org/1999/xlink" xmlns:svgjs="http://svgjs.com/svgjs"><rect fill="#effaff" width="1600" height="1200"></rect><g><path d="M1355.71 437.97C1344.67 406.8 1327.15 378.25 1302.66 355.31 1215.64 273.61 1079.64 267.7 969.97 297.71 934.05 307.59 899.59 322.59 866.59 339.53 838.8 353.76 811.8 369.34 783.34 381.93 751.01 394.7 717.61 403.8 683.35 409.13 648.21 413.1 612.78 413.29 577.64 409.32 546.09 404.19 515.5 393.93 483.94 389.19 446.87 383.67 409.6 384.83 374.27 399.06 340.59 412.51 309.61 431.97 285.12 459.17 259.28 487.92 240.59 521.7 229.95 558.78 209.23 631.37 219.3 712.59 253.18 779.67 270.5 813.84 297.99 844.72 331.29 863.88 370.3 886.53 415.7 892.63 459.26 881.4 500.88 870.56 540.09 847.04 578.42 827.97 620.82 807.06 670.96 769.99 719.45 768.83 757.3 767.86 794.96 788.77 829.9 800.96 871.52 815.58 915.27 821.68 959.32 821.1 998.33 820.52 1037.24 816.16 1075.86 811.61 1173.05 800.38 1272.27 779.86 1333.44 696.04 1387.45 621.99 1395.78 520.06 1355.71 437.97Z" fill="#deeff7" opacity="1" stroke-width="2" stroke="none"></path></g><g><path d="M593.77 921.15H524.64C485.99 921.15 454.42 892.98 454.42 858.49" stroke="#333333" stroke-width="2" stroke-linecap="round" stroke-linejoin="round" opacity="1" fill="none"></path><path d="M696.1 985.76C696.1 950.06 663.98 921.39 623.98 921.39" stroke="#333333" stroke-width="2" stroke-linecap="round" stroke-linejoin="round" opacity="1" fill="none"></path><path d="M631.32 765.94H1218.38C1256.76 765.94 1287.78 738.25 1287.78 704.01 1287.78 669.76 1256.76 642.07 1218.38 642.07H1124.48" stroke="#333333" stroke-width="2" stroke-linecap="round" stroke-linejoin="round" opacity="1" fill="none"></path><path d="M726.04 642.56L518.38 642.56C466.94 642.56 424.75 605.39 424.75 559 424.75 513.09 466.39 475.69 518.38 475.69H575.53" stroke="#333333" stroke-width="2" stroke-linecap="round" stroke-linejoin="round" opacity="1" fill="none"></path><path d="M837.9 642.56H752.16" stroke="#333333" stroke-width="2" stroke-linecap="round" stroke-linejoin="round" opacity="1" fill="none"></path><path d="M382.57 475.93C343.37 475.93 312.08 447.51 312.08 412.78V320.24" stroke="#333333" stroke-width="2" stroke-linecap="round" stroke-linejoin="round" opacity="1" fill="none"></path><path d="M518.1 475.93L410.87 475.93" stroke="#333333" stroke-width="2" stroke-linecap="round" stroke-linejoin="round" opacity="1" fill="none"></path></g><g><path d="M228.91 758.49H196.5C170.62 758.49 149.45 779.66 149.45 805.54 149.45 831.41 170.62 852.58 196.5 852.58H301.56C286.67 852.58 274.64 864.87 274.64 879.77 274.64 894.66 286.67 906.69 301.56 906.69H382.32C397.22 906.69 409.24 894.66 409.24 879.77 409.24 864.87 397.22 852.58 382.32 852.58H421.01C446.88 852.58 468.05 831.41 468.05 805.54 468.05 779.66 446.88 758.49 421.01 758.49H252.95" fill="#3d84a8" opacity="1" stroke-width="2" stroke="none"></path><path d="M228.91 758.49H196.5C170.62 758.49 149.45 779.66 149.45 805.54 149.45 831.41 170.62 852.58 196.5 852.58H301.56C286.67 852.58 274.64 864.87 274.64 879.77 274.64 894.66 286.67 906.69 301.56 906.69H382.32C397.22 906.69 409.24 894.66 409.24 879.77 409.24 864.87 397.22 852.58 382.32 852.58H421.01C446.88 852.58 468.05 831.41 468.05 805.54 468.05 779.66 446.88 758.49 421.01 758.49H252.95" stroke="#333333" stroke-width="2" stroke-linecap="round" stroke-linejoin="round" opacity="1" fill="none"></path></g><g><path d="M1145.19 268.76H1219.42C1203.09 268.76 1189.57 255.49 1189.57 238.91 1189.57 222.59 1202.84 209.07 1219.42 209.07H1258.44 1274.25 1309.71 1317.36 1367.35C1383.67 209.07 1397.19 222.33 1397.19 238.91 1397.19 255.49 1383.93 268.76 1367.35 268.76H1400.25C1417.85 268.76 1431.62 283.04 1431.62 300.13 1431.62 317.22 1417.6 331.5 1400.25 331.5H1342.86 1313.53 1088.57C1070.97 331.5 1057.2 317.22 1057.2 300.13 1057.2 282.53 1071.23 268.76 1088.57 268.76H1112.8" fill="#3d84a8" opacity="1" stroke-width="2" stroke="none"></path><path d="M1145.19 268.76H1219.42C1203.09 268.76 1189.57 255.49 1189.57 238.91 1189.57 222.59 1202.84 209.07 1219.42 209.07H1258.44 1274.25 1309.71 1317.36 1367.35C1383.67 209.07 1397.19 222.33 1397.19 238.91 1397.19 255.49 1383.93 268.76 1367.35 268.76H1400.25C1417.85 268.76 1431.62 283.04 1431.62 300.13 1431.62 317.22 1417.6 331.5 1400.25 331.5H1342.86 1313.53 1088.57C1070.97 331.5 1057.2 317.22 1057.2 300.13 1057.2 282.53 1071.23 268.76 1088.57 268.76H1112.8" stroke="#333333" stroke-width="2" stroke-linecap="round" stroke-linejoin="round" opacity="1" fill="none"></path></g><g><path d="M1008.43 552.5L975.78 658.92C975.72 659.18 975.45 659.13 975.45 659.13L815.51 610.37C815.24 610.31 815.29 610.04 815.29 610.04L880.14 397.97C880.2 397.7 880.47 397.76 880.47 397.76L1040.42 446.51C1040.68 446.57 1040.63 446.84 1040.63 446.84L1013.63 535" fill="#3d84a8" opacity="1" stroke-width="2" stroke="none"></path><path d="M1008.43 552.5L975.78 658.92C975.72 659.18 975.45 659.13 975.45 659.13L815.51 610.37C815.24 610.31 815.29 610.04 815.29 610.04L880.14 397.97C880.2 397.7 880.47 397.76 880.47 397.76L1040.42 446.51C1040.68 446.57 1040.63 446.84 1040.63 446.84L1013.63 535" stroke="#333333" stroke-width="2" stroke-linecap="round" stroke-linejoin="round" opacity="1" fill="none"></path><path d="M900.92 472.76L981.65 497.58" stroke="#333333" stroke-width="2" stroke-linecap="round" stroke-linejoin="round" opacity="1" fill="none"></path><path d="M887.63 515.89L968.62 540.78" stroke="#333333" stroke-width="2" stroke-linecap="round" stroke-linejoin="round" opacity="1" fill="none"></path><path d="M874.6 559.09L955.39 583.64" stroke="#333333" stroke-width="2" stroke-linecap="round" stroke-linejoin="round" opacity="1" fill="none"></path><path d="M779.37 480.03C779.43 479.76 779.43 479.76 779.7 479.82L946.91 476.79C947.18 476.85 947.18 476.85 947.12 477.12L951.07 698.73C951.01 699 951.01 699 950.74 698.94L783.53 701.97C783.26 701.91 783.26 701.91 783.32 701.64L779.37 480.03Z" fill="#46cdcf" stroke="#333333" stroke-width="2" stroke-linecap="round" stroke-linejoin="round" opacity="1"></path><path d="M822.61 545L907.05 543.53" stroke="#333333" stroke-width="2" stroke-linecap="round" stroke-linejoin="round" opacity="1" fill="none"></path><path d="M823.3 590.04L908.01 588.62" stroke="#333333" stroke-width="2" stroke-linecap="round" stroke-linejoin="round" opacity="1" fill="none"></path><path d="M824.2 635.4L908.7 633.66" stroke="#333333" stroke-width="2" stroke-linecap="round" stroke-linejoin="round" opacity="1" fill="none"></path><path d="M679 363.44C679.06 363.17 679.33 363.23 679.33 363.23L838.07 416.24C838.34 416.3 838.28 416.57 838.28 416.57L768.16 626.93C768.1 627.2 767.83 627.15 767.83 627.15L609.09 574.13C608.82 574.07 608.88 573.8 608.88 573.8L679 363.44Z" fill="#78c7e0" stroke="#333333" stroke-width="2" stroke-linecap="round" stroke-linejoin="round" opacity="1"></path><path d="M761.82 460.7L777.86 466.15" stroke="#333333" stroke-width="2" stroke-linecap="round" stroke-linejoin="round" opacity="1" fill="none"></path><path d="M697.6 439.17L747.07 455.81" stroke="#333333" stroke-width="2" stroke-linecap="round" stroke-linejoin="round" opacity="1" fill="none"></path><path d="M683.23 482.07L763.55 508.78" stroke="#333333" stroke-width="2" stroke-linecap="round" stroke-linejoin="round" opacity="1" fill="none"></path><path d="M669.19 524.76L749.17 551.68" stroke="#333333" stroke-width="2" stroke-linecap="round" stroke-linejoin="round" opacity="1" fill="none"></path><path d="M608.74 497.55C608.8 497.28 609.07 497.34 608.74 497.55L1016.23 585.53C1016.5 585.59 1016.5 585.59 1016.45 585.86L959.27 849.84C959.21 850.11 959.21 850.11 958.94 850.05L551.78 761.87C551.51 761.81 551.51 761.81 551.56 761.54L608.74 497.55Z" fill="#abedd8" stroke="#333333" stroke-width="2" stroke-linecap="round" stroke-linejoin="round" opacity="1"></path><path d="M853.61 640.36L734.16 614.49C725.26 612.56 719.56 603.7 721.48 594.81 723.41 585.91 732.27 580.2 741.17 582.13L860.62 608C869.52 609.93 875.22 618.79 873.3 627.69 871.64 636.64 862.78 642.35 853.61 640.36Z" stroke="#333333" stroke-width="2" stroke-linecap="round" stroke-linejoin="round" opacity="1" fill="none"></path></g></svg>