<?xml version="1.0" encoding="utf-8"?>
<!-- Uploaded to: SVG Repo, www.svgrepo.com, Generator: SVG Repo Mixer Tools -->
<svg width="800px" height="800px" viewBox="0 0 24 24" xmlns="http://www.w3.org/2000/svg" xmlns:xlink="http://www.w3.org/1999/xlink">
  <defs>
    <rect id="file-a" width="16" height="4"/>
    <path id="file-c" d="M2,16 L16,16 L16,4.87255859 L13,2.20735171 L13,6.05004883 L14.4870605,6.05004883 C15.0393453,6.05004883 15.4870605,6.49776408 15.4870605,7.05004883 C15.4870605,7.60233358 15.0393453,8.05004883 14.4870605,8.05004883 L12,8.05004883 C11.4477153,8.05004883 11,7.60233358 11,7.05004883 L11,2 L2,2 L2,16 Z M2,18 L2,20 L16,20 L16,18 L2,18 Z M2,0 L12.7666016,0 C13.2562425,0 13.7288721,0.179619924 14.0949228,0.504820154 L17.3283212,3.37737875 C17.7555428,3.75692342 18,4.30109339 18,4.87255859 L18,20 C18,21.1045695 17.1045695,22 16,22 L2,22 C0.8954305,22 0,21.1045695 0,20 L0,2 C0,0.8954305 0.8954305,0 2,0 Z"/>
  </defs>
  <g fill="none" fill-rule="evenodd" transform="translate(3 1)">
    <g transform="translate(1 17)">
      <mask id="file-b" fill="#ffffff">
        <use xlink:href="#file-a"/>
      </mask>
      <use fill="#D8D8D8" xlink:href="#file-a"/>
      <g fill="#FFA0A0" mask="url(#file-b)">
        <rect width="24" height="24" transform="translate(-4 -18)"/>
      </g>
    </g>
    <mask id="file-d" fill="#ffffff">
      <use xlink:href="#file-c"/>
    </mask>
    <use fill="#000000" fill-rule="nonzero" xlink:href="#file-c"/>
    <g fill="#7600FF" mask="url(#file-d)">
      <rect width="24" height="24" transform="translate(-3 -1)"/>
    </g>
  </g>
</svg>